<svg width="512" height="512" viewBox="0 0 100 100" xmlns="http://www.w3.org/2000/svg" aria-label="Midnight Project Logo">
    <defs>
        <radialGradient id="moonSurface" cx="50%" cy="50%" r="50%" fx="40%" fy="40%">
            <stop offset="0%" stop-color="#999999" />
            <stop offset="35%" stop-color="#808080" />
            <stop offset="50%" stop-color="#6b6b6b" />
            <stop offset="75%" stop-color="#555555" />
            <stop offset="100%" stop-color="#484848" />
        </radialGradient>

        <filter id="moonTexture">
            <feTurbulence type="fractalNoise" baseFrequency="0.4" numOctaves="3" result="noise" stitchTiles="stitch"/>
            <feColorMatrix in="noise" type="matrix" values="1 0 0 0 0  0 1 0 0 0  0 0 1 0 0  0 0 0 .3 0" result="tonedNoise"/>
            <feComposite in="SourceGraphic" in2="tonedNoise" operator="arithmetic" k1="1" k2="0" k3="0" k4="0" />
        </filter>
        
        <filter id="nodeGlow" x="-50%" y="-50%" width="200%" height="200%">
            <feGaussianBlur in="SourceAlpha" stdDeviation="0.8" result="blur" />
            <feMerge>
                <feMergeNode in="blur" />
                <feMergeNode in="SourceGraphic" />
            </feMerge>
        </filter>

        <filter id="moonShadow" x="-50%" y="-50%" width="200%" height="200%">
            <feDropShadow dx="3" dy="3" stdDeviation="3" flood-color="#000000" flood-opacity="0.4"/>
        </filter>
    </defs>

    <circle cx="50" cy="50" r="45" fill="#ffffff" />
    
    <circle cx="50" cy="50" r="35" fill="url(#moonSurface)" filter="url(#moonTexture) url(#moonShadow)" />

    <g stroke="#00aaff" stroke-opacity="0.5" stroke-width="0.75">
        <path d="M 40 35 L 60 28" />
        <path d="M 40 35 L 30 55" />
        <path d="M 30 55 L 55 70" />
        <path d="M 55 70 L 75 65" />
        <path d="M 75 65 L 68 45" />
        <path d="M 68 45 L 60 28" />
        <path d="M 68 45 L 40 35" />
    </g>

    <g fill="#00aaff" filter="url(#nodeGlow)">
        <circle cx="40" cy="35" r="4" />
        <circle cx="68" cy="45" r="3" />
        <circle cx="55" cy="70" r="3.5" />
        <circle cx="30" cy="55" r="2" />
        <circle cx="75" cy="65" r="1.5" />
        <circle cx="60" cy="28" r="2.5" />
    </g>
</svg>