<svg width="512" height="512" viewBox="0 0 100 100" xmlns="http://www.w3.org/2000/svg" aria-label="Midnight Project Logo">
    <defs>
        <radialGradient id="moonSurface" cx="50%" cy="50%" r="50%" fx="40%" fy="40%">
            <!-- Higher contrast gradient for better visibility -->
            <stop offset="0%" stop-color="#E0E0E0" />
            <stop offset="50%" stop-color="#808080" />
            <stop offset="100%" stop-color="#303030" />
        </radialGradient>

        <filter id="moonTexture">
            <feTurbulence type="fractalNoise" baseFrequency="0.4" numOctaves="3" result="noise" stitchTiles="stitch"/>
            <feColorMatrix in="noise" type="matrix" values="1 0 0 0 0  0 1 0 0 0  0 0 1 0 0  0 0 0 .3 0" result="tonedNoise"/>
            <feComposite in="SourceGraphic" in2="tonedNoise" operator="arithmetic" k1="1" k2="0" k3="0" k4="0" />
        </filter>
        
        <filter id="nodeGlow" x="-50%" y="-50%" width="200%" height="200%">
            <feGaussianBlur in="SourceAlpha" stdDeviation="0.8" result="blur" />
            <feMerge>
                <feMergeNode in="blur" />
                <feMergeNode in="SourceGraphic" />
            </feMerge>
        </filter>

        <filter id="moonShadow" x="-50%" y="-50%" width="200%" height="200%">
            <feDropShadow dx="3" dy="3" stdDeviation="3" flood-color="#000000" flood-opacity="0.4"/>
        </filter>
    </defs>

    <circle cx="50" cy="50" r="50" fill="#ffffff" />

    <circle cx="50" cy="50" r="48" fill="url(#moonSurface)" filter="url(#moonTexture) url(#moonShadow)" />

    <g stroke="#00aaff" stroke-opacity="0.5" stroke-width="0.75">
        <path d="M 36 29 L 64 20" />
        <path d="M 36 29 L 23 57" />
        <path d="M 23 57 L 57 77" />
        <path d="M 57 77 L 84 71" />
        <path d="M 84 71 L 75 43" />
        <path d="M 75 43 L 64 20" />
        <path d="M 75 43 L 36 29" />
    </g>
    <g fill="#00aaff" filter="url(#nodeGlow)">
        <circle cx="36" cy="29" r="4" />
        <circle cx="75" cy="43" r="3" />
        <circle cx="57" cy="77" r="3.5" />
        <circle cx="23" cy="57" r="2" />
        <circle cx="84" cy="71" r="1.5" />
        <circle cx="64" cy="20" r="2.5" />
    </g>
</svg>